<?xml version="1.0" encoding="utf-8"?>
<!-- Generator: Adobe Illustrator 25.4.1, SVG Export Plug-In . SVG Version: 6.00 Build 0)  -->
<svg version="1.1" id="Layer_1" xmlns="http://www.w3.org/2000/svg" xmlns:xlink="http://www.w3.org/1999/xlink" x="0px" y="0px"
	 viewBox="0 0 612 306" style="enable-background:new 0 0 612 306;" xml:space="preserve">
<style type="text/css">
	.st0{fill:#F8C56B;}
	.st1{fill:#F16B4E;}
	.st2{fill:#046D3B;}
	.st3{fill:#F4A9A3;}
</style>
<rect x="0" y="229.5" transform="matrix(-1.836970e-16 1 -1 -1.836970e-16 306 229.4999)" class="st0" width="76.5" height="76.5"/>
<rect x="76.5" transform="matrix(-1.836970e-16 1 -1 -1.836970e-16 153 -76.5)" class="st0" width="76.5" height="76.5"/>
<path class="st1" d="M76.5,76.5c0,0,0-17.1,0-38.2s0-38.2,0-38.2c21.1,0,38.2,17.1,38.2,38.2S97.6,76.5,76.5,76.5z"/>
<path class="st1" d="M114.8,76.5c0,0,0-17.1,0-38.2s0-38.2,0-38.2C135.9,0,153,17.1,153,38.2S135.9,76.5,114.8,76.5z"/>
<rect x="76.5" y="76.5" transform="matrix(-1.836970e-16 1 -1 -1.836970e-16 229.5 -6.003991e-05)" class="st2" width="76.5" height="76.5"/>
<circle class="st3" cx="114.8" cy="114.7" r="38.2"/>
<rect x="76.5" y="153" transform="matrix(6.123234e-17 -1 1 6.123234e-17 -76.4999 306)" class="st1" width="76.5" height="76.5"/>
<path class="st0" d="M153,153c0,0,0,17.1,0,38.2s0,38.2,0,38.2c-21.1,0-38.2-17.1-38.2-38.2S131.9,153,153,153z"/>
<path class="st0" d="M114.8,153c0,0,0,17.1,0,38.2s0,38.2,0,38.2c-21.1,0-38.2-17.1-38.2-38.2S93.6,153,114.8,153z"/>
<rect x="76.5" y="229.5" transform="matrix(6.123234e-17 -1 1 6.123234e-17 -152.9999 382.5)" class="st3" width="76.5" height="76.5"/>
<path class="st0" d="M114.8,306c0,0,0-17.1,0-38.2s0-38.2,0-38.2c21.1,0,38.2,17.1,38.2,38.2C153,288.9,135.9,306,114.8,306z"/>
<path class="st2" d="M114.8,229.5c0,0,0,17.1,0,38.2s0,38.2,0,38.2c-21.1,0-38.2-17.1-38.2-38.2S93.6,229.5,114.8,229.5z"/>
<rect x="-38.2" y="38.2" transform="matrix(6.123234e-17 -1 1 6.123234e-17 -38.25 114.75)" class="st0" width="153" height="76.5"/>
<path class="st3" d="M0,153c0,0,0-34.3,0-76.5S0,0,0,0c42.2,0,76.5,34.3,76.5,76.5S42.2,153,0,153z"/>
<rect x="0" y="153" transform="matrix(-1 -1.224647e-16 1.224647e-16 -1 76.5001 382.5)" class="st2" width="76.5" height="76.5"/>
<path class="st1" d="M0,153c0,0,17.1,0,38.2,0s38.2,0,38.2,0c0,21.1-17.1,38.2-38.2,38.2S0,174.1,0,153z"/>
<path class="st3" d="M0,191.2c0,0,17.1,0,38.2,0s38.2,0,38.2,0c0,21.1-17.1,38.2-38.2,38.2S0,212.4,0,191.2z"/>
<path class="st2" d="M38.3,306c6,0,10.8-4.8,10.8-10.8v-1.3l0.9,0.9c4.2,4.2,11.1,4.2,15.3,0v0c4.2-4.2,4.2-11.1,0-15.3l-0.9-0.9
	h1.2c6,0,10.8-4.8,10.8-10.8v0c0-6-4.8-10.8-10.8-10.8h-1.2l0.9-0.9c4.2-4.2,4.2-11.1,0-15.3c-4.2-4.2-11.1-4.2-15.3,0l-0.9,0.9
	v-1.3c0-6-4.8-10.8-10.8-10.8c-6,0-10.8,4.8-10.8,10.8v1.2l-0.9-0.9c-4.2-4.2-11.1-4.2-15.3,0h0c-4.2,4.2-4.2,11.1,0,15.3l0.9,0.9
	h-1.3c-6,0-10.8,4.8-10.8,10.8v0c0,6,4.8,10.8,10.8,10.8h1.3l-0.9,0.9c-4.2,4.2-4.2,11.1,0,15.3c4.2,4.2,11.1,4.2,15.3,0l0.9-0.9
	v1.2C27.4,301.2,32.3,306,38.3,306z"/>
<rect x="229.5" y="0" transform="matrix(6.123234e-17 -1 1 6.123234e-17 229.5 306)" class="st0" width="76.5" height="76.5"/>
<rect x="153" y="229.5" transform="matrix(6.123234e-17 -1 1 6.123234e-17 -76.4999 459)" class="st0" width="76.5" height="76.5"/>
<path class="st3" d="M229.5,229.5c0,0,0,17.1,0,38.2c0,21.1,0,38.2,0,38.2c-21.1,0-38.2-17.1-38.2-38.2
	C191.3,246.6,208.4,229.5,229.5,229.5z"/>
<path class="st3" d="M191.3,229.5c0,0,0,17.1,0,38.2c0,21.1,0,38.2,0,38.2c-21.1,0-38.2-17.1-38.2-38.2
	C153,246.6,170.1,229.5,191.3,229.5z"/>
<rect x="153" y="153" transform="matrix(6.123234e-17 -1 1 6.123234e-17 5.382890e-05 382.5)" class="st2" width="76.5" height="76.5"/>
<circle class="st3" cx="191.3" cy="191.2" r="38.2"/>
<rect x="153" y="76.5" transform="matrix(-1.836970e-16 1 -1 -1.836970e-16 306 -76.5)" class="st1" width="76.5" height="76.5"/>
<rect x="153" y="0" transform="matrix(-1.836970e-16 1 -1 -1.836970e-16 229.5001 -153)" class="st3" width="76.5" height="76.5"/>
<path class="st0" d="M191.3,0c0,0,0,17.1,0,38.2c0,21.1,0,38.2,0,38.2c-21.1,0-38.2-17.1-38.2-38.3C153,17.1,170.1,0,191.3,0z"/>
<path class="st2" d="M191.3,76.5c0,0,0-17.1,0-38.2s0-38.2,0-38.2c21.1,0,38.2,17.1,38.2,38.2S212.4,76.5,191.3,76.5z"/>
<rect x="191.3" y="191.2" transform="matrix(-1.836970e-16 1 -1 -1.836970e-16 497.25 -38.2501)" class="st0" width="153" height="76.5"/>
<path class="st1" d="M306,153c0,0,0,34.3,0,76.5c0,42.2,0,76.5,0,76.5c-42.2,0-76.5-34.3-76.5-76.5C229.5,187.3,263.8,153,306,153z"
	/>
<rect x="229.5" y="76.5" class="st2" width="76.5" height="76.5"/>
<path class="st1" d="M306,153c0,0-17.1,0-38.2,0c-21.1,0-38.2,0-38.2,0c0-21.1,17.1-38.2,38.2-38.2C288.9,114.7,306,131.9,306,153z"
	/>
<path class="st3" d="M306,114.7c0,0-17.1,0-38.2,0c-21.1,0-38.2,0-38.2,0c0-21.1,17.1-38.2,38.2-38.2C288.9,76.5,306,93.6,306,114.7
	z"/>
<path class="st2" d="M267.8,0c-6,0-10.8,4.8-10.8,10.8v1.3l-0.9-0.9c-4.2-4.2-11.1-4.2-15.3,0v0c-4.2,4.2-4.2,11.1,0,15.3l0.9,0.9
	h-1.2c-6,0-10.8,4.8-10.8,10.8v0c0,6,4.8,10.8,10.8,10.8h1.2l-0.9,0.9c-4.2,4.2-4.2,11.1,0,15.3c4.2,4.2,11.1,4.2,15.3,0l0.9-0.9
	v1.3c0,6,4.8,10.8,10.8,10.8c6,0,10.8-4.8,10.8-10.8v-1.2l0.9,0.9c4.2,4.2,11.1,4.2,15.3,0h0c4.2-4.2,4.2-11.1,0-15.3l-0.9-0.9h1.3
	c6,0,10.8-4.8,10.8-10.8v0c0-6-4.8-10.8-10.8-10.8h-1.3l0.9-0.9c4.2-4.2,4.2-11.1,0-15.3c-4.2-4.2-11.1-4.2-15.3,0l-0.9,0.9v-1.2
	C278.6,4.8,273.7,0,267.8,0z"/>
<path class="st0" d="M191.3,76.5c-6,0-10.8,4.8-10.8,10.8v1.3l-0.9-0.9c-4.2-4.2-11.1-4.2-15.3,0v0c-4.2,4.2-4.2,11.1,0,15.3
	l0.9,0.9h-1.2c-6,0-10.8,4.8-10.8,10.8v0c0,6,4.8,10.8,10.8,10.8h1.2l-0.9,0.9c-4.2,4.2-4.2,11.1,0,15.3c4.2,4.2,11.1,4.2,15.3,0
	l0.9-0.9v1.3c0,6,4.8,10.8,10.8,10.8c6,0,10.8-4.8,10.8-10.8v-1.2l0.9,0.9c4.2,4.2,11.1,4.2,15.3,0h0c4.2-4.2,4.2-11.1,0-15.3
	l-0.9-0.9h1.3c6,0,10.8-4.8,10.8-10.8v0c0-6-4.8-10.8-10.8-10.8h-1.3l0.9-0.9c4.2-4.2,4.2-11.1,0-15.3c-4.2-4.2-11.1-4.2-15.3,0
	l-0.9,0.9v-1.2C202.1,81.3,197.2,76.5,191.3,76.5z"/>
<rect x="535.5" y="0" transform="matrix(6.123234e-17 -1 1 6.123234e-17 535.5 612.0001)" class="st0" width="76.5" height="76.5"/>
<rect x="459" y="229.5" transform="matrix(6.123234e-17 -1 1 6.123234e-17 229.5001 765.0001)" class="st0" width="76.5" height="76.5"/>
<path class="st1" d="M535.5,229.5c0,0,0,17.1,0,38.2c0,21.1,0,38.2,0,38.2c-21.1,0-38.2-17.1-38.2-38.2
	C497.3,246.6,514.4,229.5,535.5,229.5z"/>
<path class="st1" d="M497.3,229.5c0,0,0,17.1,0,38.2c0,21.1,0,38.2,0,38.2c-21.1,0-38.2-17.1-38.2-38.2
	C459,246.6,476.1,229.5,497.3,229.5z"/>
<rect x="459" y="153" transform="matrix(6.123234e-17 -1 1 6.123234e-17 306.0001 688.5001)" class="st2" width="76.5" height="76.5"/>
<circle class="st3" cx="497.3" cy="191.2" r="38.2"/>
<rect x="459" y="76.5" transform="matrix(-1.836970e-16 1 -1 -1.836970e-16 612.0001 -382.5)" class="st1" width="76.5" height="76.5"/>
<path class="st0" d="M459,153c0,0,0-17.1,0-38.2s0-38.2,0-38.2c21.1,0,38.2,17.1,38.2,38.2S480.1,153,459,153z"/>
<path class="st0" d="M497.3,153c0,0,0-17.1,0-38.2s0-38.2,0-38.2c21.1,0,38.2,17.1,38.2,38.2S518.4,153,497.3,153z"/>
<rect x="459" y="0" transform="matrix(-1.836970e-16 1 -1 -1.836970e-16 535.5001 -459)" class="st3" width="76.5" height="76.5"/>
<path class="st0" d="M497.3,0c0,0,0,17.1,0,38.2c0,21.1,0,38.2,0,38.2c-21.1,0-38.2-17.1-38.2-38.3C459,17.1,476.1,0,497.3,0z"/>
<path class="st2" d="M497.3,76.5c0,0,0-17.1,0-38.2s0-38.2,0-38.2c21.1,0,38.2,17.1,38.2,38.2S518.4,76.5,497.3,76.5z"/>
<rect x="497.3" y="191.2" transform="matrix(-1.836970e-16 1 -1 -1.836970e-16 803.2501 -344.2501)" class="st0" width="153" height="76.5"/>
<path class="st3" d="M612,153c0,0,0,34.3,0,76.5c0,42.2,0,76.5,0,76.5c-42.2,0-76.5-34.3-76.5-76.5C535.5,187.3,569.8,153,612,153z"
	/>
<rect x="535.5" y="76.5" class="st2" width="76.5" height="76.5"/>
<path class="st1" d="M612,153c0,0-17.1,0-38.2,0s-38.2,0-38.2,0c0-21.1,17.1-38.2,38.2-38.2S612,131.9,612,153z"/>
<path class="st3" d="M612,114.7c0,0-17.1,0-38.2,0s-38.2,0-38.2,0c0-21.1,17.1-38.2,38.2-38.2S612,93.6,612,114.7z"/>
<path class="st2" d="M573.8,0c-6,0-10.8,4.8-10.8,10.8v1.3l-0.9-0.9c-4.2-4.2-11.1-4.2-15.3,0v0c-4.2,4.2-4.2,11.1,0,15.3l0.9,0.9
	h-1.2c-6,0-10.8,4.8-10.8,10.8v0c0,6,4.8,10.8,10.8,10.8h1.2l-0.9,0.9c-4.2,4.2-4.2,11.1,0,15.3c4.2,4.2,11.1,4.2,15.3,0l0.9-0.9
	v1.3c0,6,4.8,10.8,10.8,10.8c6,0,10.8-4.8,10.8-10.8v-1.2l0.9,0.9c4.2,4.2,11.1,4.2,15.3,0h0c4.2-4.2,4.2-11.1,0-15.3l-0.9-0.9h1.3
	c6,0,10.8-4.8,10.8-10.8v0c0-6-4.8-10.8-10.8-10.8h-1.3l0.9-0.9c4.2-4.2,4.2-11.1,0-15.3c-4.2-4.2-11.1-4.2-15.3,0l-0.9,0.9v-1.2
	C584.6,4.8,579.7,0,573.8,0z"/>
<rect x="306" y="229.5" transform="matrix(-1.836970e-16 1 -1 -1.836970e-16 612.0001 -76.5001)" class="st0" width="76.5" height="76.5"/>
<rect x="382.5" y="0" transform="matrix(-1.836970e-16 1 -1 -1.836970e-16 459.0001 -382.5001)" class="st0" width="76.5" height="76.5"/>
<path class="st3" d="M382.5,76.5c0,0,0-17.1,0-38.2s0-38.2,0-38.2c21.1,0,38.2,17.1,38.2,38.2S403.6,76.5,382.5,76.5z"/>
<path class="st3" d="M420.8,76.5c0,0,0-17.1,0-38.2s0-38.2,0-38.2C441.9,0,459,17.1,459,38.3S441.9,76.5,420.8,76.5z"/>
<rect x="382.5" y="76.5" transform="matrix(-1.836970e-16 1 -1 -1.836970e-16 535.5001 -306.0001)" class="st2" width="76.5" height="76.5"/>
<circle class="st3" cx="420.8" cy="114.7" r="38.2"/>
<rect x="382.5" y="153" transform="matrix(6.123234e-17 -1 1 6.123234e-17 229.5001 612.0001)" class="st1" width="76.5" height="76.5"/>
<rect x="382.5" y="229.5" transform="matrix(6.123234e-17 -1 1 6.123234e-17 153.0001 688.5)" class="st3" width="76.5" height="76.5"/>
<path class="st0" d="M420.8,306c0,0,0-17.1,0-38.2c0-21.1,0-38.2,0-38.2c21.1,0,38.2,17.1,38.2,38.3S441.9,306,420.8,306z"/>
<path class="st2" d="M420.8,229.5c0,0,0,17.1,0,38.2s0,38.2,0,38.2c-21.1,0-38.2-17.1-38.2-38.2S399.6,229.5,420.8,229.5z"/>
<rect x="267.8" y="38.3" transform="matrix(6.123234e-17 -1 1 6.123234e-17 267.7501 420.7501)" class="st0" width="153" height="76.5"/>
<path class="st1" d="M306,153c0,0,0-34.3,0-76.5c0-42.2,0-76.5,0-76.5c42.2,0,76.5,34.3,76.5,76.5C382.5,118.7,348.2,153,306,153z"
	/>
<rect x="306" y="153" transform="matrix(-1 -1.224647e-16 1.224647e-16 -1 688.5001 382.5)" class="st2" width="76.5" height="76.5"/>
<path class="st1" d="M306,153c0,0,17.1,0,38.2,0c21.1,0,38.2,0,38.2,0c0,21.1-17.1,38.2-38.2,38.2C323.1,191.2,306,174.1,306,153z"
	/>
<path class="st3" d="M306,191.2c0,0,17.1,0,38.2,0c21.1,0,38.2,0,38.2,0c0,21.1-17.1,38.2-38.2,38.2
	C323.1,229.5,306,212.4,306,191.2z"/>
<path class="st2" d="M344.3,306c6,0,10.8-4.8,10.8-10.8v-1.3l0.9,0.9c4.2,4.2,11.1,4.2,15.3,0v0c4.2-4.2,4.2-11.1,0-15.3l-0.9-0.9
	h1.2c6,0,10.8-4.8,10.8-10.8v0c0-6-4.8-10.8-10.8-10.8h-1.2l0.9-0.9c4.2-4.2,4.2-11.1,0-15.3c-4.2-4.2-11.1-4.2-15.3,0l-0.9,0.9
	v-1.3c0-6-4.8-10.8-10.8-10.8c-6,0-10.8,4.8-10.8,10.8v1.2l-0.9-0.9c-4.2-4.2-11.1-4.2-15.3,0h0c-4.2,4.2-4.2,11.1,0,15.3l0.9,0.9
	h-1.3c-6,0-10.8,4.8-10.8,10.8v0c0,6,4.8,10.8,10.8,10.8h1.3l-0.9,0.9c-4.2,4.2-4.2,11.1,0,15.3c4.2,4.2,11.1,4.2,15.3,0l0.9-0.9
	v1.2C333.4,301.2,338.3,306,344.3,306z"/>
<path class="st0" d="M420.8,229.5c6,0,10.8-4.8,10.8-10.8v-1.3l0.9,0.9c4.2,4.2,11.1,4.2,15.3,0v0c4.2-4.2,4.2-11.1,0-15.3l-0.9-0.9
	h1.2c6,0,10.8-4.8,10.8-10.8v0c0-6-4.8-10.8-10.8-10.8h-1.2l0.9-0.9c4.2-4.2,4.2-11.1,0-15.3c-4.2-4.2-11.1-4.2-15.3,0l-0.9,0.9
	v-1.3c0-6-4.8-10.8-10.8-10.8c-6,0-10.8,4.8-10.8,10.8v1.2l-0.9-0.9c-4.2-4.2-11.1-4.2-15.3,0h0c-4.2,4.2-4.2,11.1,0,15.3l0.9,0.9
	h-1.3c-6,0-10.8,4.8-10.8,10.8v0c0,6,4.8,10.8,10.8,10.8h1.3l-0.9,0.9c-4.2,4.2-4.2,11.1,0,15.3c4.2,4.2,11.1,4.2,15.3,0l0.9-0.9
	v1.2C409.9,224.7,414.8,229.5,420.8,229.5z"/>
</svg>
